<?xml version="1.0" encoding="UTF-8"?>
<svg id="Layer_2" data-name="Layer 2" xmlns="http://www.w3.org/2000/svg" viewBox="0 0 1800 187.89">
  <defs>
    <style>
      .cls-1 {
        fill: #231f20;
        stroke-width: 0px;
      }
    </style>
  </defs>
  <g id="Layer_1-2" data-name="Layer 1">
    <g>
      <path class="cls-1" d="M0,2.98h34.37l19.61,130.94h.49L75.3,2.98h34.22l20.83,130.94h.5L150.45,2.98h34.37l-31.97,175.58h-40.43l-19.76-127.97h-.48l-19.77,127.97H31.97L0,2.98Z"/>
      <path class="cls-1" d="M266.57,163.68h-.49c-7.2,13.29-19.6,19.3-33.97,19.3-21.34,0-33.99-11.78-33.99-38.36V44.64h35.71v92.36c0,13.43,4.48,18.67,14.63,18.67,11.66,0,18.11-7.21,18.11-22.14V44.64l32.74,2.98v133.92h-32.74v-17.86Z"/>
      <path class="cls-1" d="M323.12,47.62h32.74v14.88h.5c7.2-13.29,19.59-19.3,33.97-19.3,21.31,0,33.97,11.78,33.97,38.36v99.98h-32.74v-92.36c0-13.43-4.46-18.67-14.62-18.67-11.66,0-18.11,7.21-18.11,22.15v88.87h-35.71V47.62Z"/>
      <path class="cls-1" d="M516.56,166.66h-.92c-7.45,12.43-16.9,17.65-30.31,17.65-28.1,0-41.03-20.63-41.03-70.35s12.93-70.35,41.03-70.35c12.93,0,21.62,5.22,28.84,15.91h-.58s0-56.54,0-56.54h35.71v178.56h-32.74v-14.88ZM496.54,156.75c15.18,0,18.16-14.93,18.16-44.06s-2.98-44.06-18.16-44.06-17.93,14.93-17.93,44.06,2.98,44.06,17.93,44.06Z"/>
      <path class="cls-1" d="M599.88,119.04v10.33c1.52,15.68,5.74,31.11,18.45,31.11,11.44,0,16.17-8.71,18.18-23.59h30.86c-1.24,29.58-16.18,47-48.54,47-49.81,0-51.79-38.34-51.79-71.69,0-35.84,6.98-69.21,53.26-69.21,40.08,0,49.04,26.9,48.01,67.96v8.09h-68.45ZM637.98,98.21c-.75-20.42-3.25-31.86-17.44-31.86s-17.68,14.19-17.68,26.63v5.23h35.12Z"/>
      <path class="cls-1" d="M686.19,47.62h32.74v17.86h1.98c6.9-12.95,16.5-21.42,30.54-21.42,1.99,0,4.2.25,6.17.5v32.87c-3.45-.27-7.15-.5-10.59-.5-11.83,0-25.12,6.21-25.12,24.15v80.46h-35.71V47.62Z"/>
      <path class="cls-1" d="M769.52,2.98h35.71v178.56h-35.71V2.98Z"/>
      <path class="cls-1" d="M832.01,0h35.71v29.76h-35.71V0ZM832.01,47.62h35.71v133.92h-35.71V47.62Z"/>
      <path class="cls-1" d="M954.89,95.23c0-13.46-2.6-27.97-16.06-27.97-17.6,0-20.45,15.54-20.45,47.64,0,34.42,3.1,48.65,19.16,48.65,11.91,0,17.35-10.08,17.35-32.61h34.14c0,36.5-15.26,56.95-53.05,56.95-35.71,0-53.32-17.33-53.32-73.25s23.54-73.25,56.43-73.25,49.94,20.96,49.94,53.85h-34.14Z"/>
      <path class="cls-1" d="M1004.62,2.98h32.74v56.54h.51c6.59-11.33,18.5-17,33.2-17,21.79,0,34.74,11.59,34.74,37.72v98.32h-32.74v-92.36c0-13.43-4.46-18.67-14.62-18.67-11.66,0-18.11,7.21-18.11,22.15l-2.98,91.84h-32.74V2.98Z"/>
      <path class="cls-1" d="M1201.04,92.26v29.76h-71.42v-29.76h71.42Z"/>
      <path class="cls-1" d="M1224.85,2.98h53.25l25.37,124.99h.49l25.64-124.99h52.98v178.56h-32.74V38.69h-1.02l-31.49,142.85h-27.78l-31.47-142.85h-.5v142.85h-32.74V2.98Z"/>
      <path class="cls-1" d="M1406.38,86.3v-1.99s20.42-41.32,46.31-41.32c40.82,0,48.54,16.94,48.92,41.09v70.44c-.38,12.44.36,18.18,3.84,27.02h-32.85c-2.23-5.35-4.24-14.88-4.24-14.88h-1.96c-7.68,14.19-17.05,17.74-32.88,17.74-23.06,0-31.21-20.8-31.21-39.04,0-25.61,9.84-36,32.64-42.59l18.73-5.33c9.85-2.78,13.2-6.83,13.2-15.97s-3.61-15.63-12.72-16.59c-9.71-1.02-18.01,7.07-18.01,16.84v4.58h-29.76ZM1468.88,112.69c-4.73,3.49-10.45,5.72-14.68,6.72-13.94,2.99-19.42,9.7-19.42,21.65,0,10.21,3.74,18.67,12.95,18.67s21.15-5.97,21.15-20.66v-26.38Z"/>
      <path class="cls-1" d="M1525.42,2.98h35.71v178.56h-35.71V2.98Z"/>
      <path class="cls-1" d="M1614.7,119.04v10.33c.08,15.68,4.31,31.11,17,31.11,11.45,0,16.18-8.71,18.18-23.59h30.86c-1.24,29.58-16.17,47-48.54,47-49.79,0-51.79-38.34-51.79-71.69,0-35.84,6.98-69.21,53.28-69.21,40.08,0,49.04,26.9,49.45,67.96v8.09h-68.45ZM1649.8,98.21c-.74-20.42-3.24-31.86-17.43-31.86s-17.68,14.19-17.68,26.63v5.23h35.1Z"/>
      <path class="cls-1" d="M1765.84,95.23c0-13.46-2.58-27.97-16.04-27.97-17.61,0-20.45,15.54-20.45,47.64,0,34.42,3.1,48.65,19.16,48.65,11.89,0,17.33-10.08,17.33-32.61h34.16c0,36.5-15.26,56.95-53.06,56.95-35.71,0-53.32-17.33-53.32-73.25s23.56-73.25,56.43-73.25,49.96,20.96,49.96,53.85h-34.16Z"/>
    </g>
  </g>
</svg>